<svg width="28" height="32" viewBox="0 0 28 32" fill="none" xmlns="http://www.w3.org/2000/svg">
<path d="M8.06867 6.62883V25.5413C8.06867 27.318 7.62449 28.6719 6.73613 29.6031C5.85848 30.545 4.56875 31.0159 2.86695 31.0159C2.14984 31.0159 1.45949 30.9249 0.795898 30.743V27.6605C1.20262 27.7568 1.66285 27.805 2.1766 27.805C3.47168 27.805 4.13527 27.0986 4.16738 25.6857V6.62883H8.06867ZM3.83023 2.11746C3.83023 1.51809 4.01754 1.02039 4.39215 0.624374C4.77746 0.228359 5.32332 0.0303508 6.02973 0.0303508C6.73613 0.0303508 7.28199 0.228359 7.6673 0.624374C8.05262 1.02039 8.24527 1.51809 8.24527 2.11746C8.24527 2.70613 8.05262 3.19848 7.6673 3.59449C7.28199 3.9798 6.73613 4.17246 6.02973 4.17246C5.32332 4.17246 4.77746 3.9798 4.39215 3.59449C4.01754 3.19848 3.83023 2.70613 3.83023 2.11746ZM20.5586 24.3211C18.0862 24.3211 16.0793 23.5451 14.5381 21.9932C13.0075 20.4305 12.2422 18.3541 12.2422 15.7639V15.2823C12.2422 13.5484 12.574 12.0018 13.2376 10.6425C13.9119 9.2725 14.8538 8.20754 16.0633 7.44762C17.2727 6.68769 18.6213 6.30773 20.109 6.30773C22.4744 6.30773 24.2993 7.0623 25.5837 8.57144C26.8788 10.0806 27.5263 12.2159 27.5263 14.9773V16.5506H16.1756C16.2934 17.9848 16.7697 19.1194 17.6045 19.9542C18.4501 20.7891 19.5097 21.2065 20.7833 21.2065C22.5708 21.2065 24.0264 20.484 25.1502 19.0391L27.2534 21.0459C26.5577 22.0841 25.6265 22.8922 24.4599 23.4702C23.3039 24.0375 22.0035 24.3211 20.5586 24.3211ZM20.093 9.4384C19.0227 9.4384 18.1557 9.81301 17.4921 10.5622C16.8392 11.3114 16.4218 12.355 16.2399 13.6929H23.6732V13.4039C23.5876 12.0981 23.2397 11.1134 22.6296 10.4498C22.0196 9.77555 21.174 9.4384 20.093 9.4384Z" fill="#A2CCA6"/>
</svg>
